<svg width="200" height="220" viewBox="0 0 200 220" fill="none" xmlns="http://www.w3.org/2000/svg">
<g clip-path="url(#clip0)">
<path fill-rule="evenodd" clip-rule="evenodd" d="M100 219.5C100 219.5 199.5 182.06 199.5 86.9094C199.5 -8.24111 199.5 0.725499 199.5 0.725499H0.5V86.9094C0.5 182.06 100 219.5 100 219.5Z" fill="#E20909" fill-opacity="0.55"/>
<path fill-rule="evenodd" clip-rule="evenodd" d="M156.599 156.602C157.083 157.038 157.225 158.391 156.915 159.624C156.605 160.857 155.961 161.502 155.477 161.065C154.992 160.628 154.851 159.275 155.161 158.043C155.47 156.81 156.114 156.165 156.599 156.602Z" fill="#FCEF3C" fill-opacity="0.85" stroke="black" stroke-opacity="0.55" stroke-width="0.808359"/>
<path fill-rule="evenodd" clip-rule="evenodd" d="M154.942 154.001C155.601 154.594 155.8 156.413 155.385 158.062C154.97 159.712 154.1 160.568 153.441 159.973C152.782 159.38 152.584 157.561 152.998 155.912C153.413 154.262 154.283 153.406 154.942 154.001Z" fill="#FCEF3C" fill-opacity="0.85" stroke="black" stroke-opacity="0.55" stroke-width="0.808359"/>
<path fill-rule="evenodd" clip-rule="evenodd" d="M153.2 151.312C154.036 152.064 154.291 154.35 153.772 156.418C153.252 158.485 152.154 159.551 151.319 158.798C150.484 158.046 150.228 155.76 150.748 153.692C151.267 151.625 152.366 150.559 153.2 151.312Z" fill="#FCEF3C" fill-opacity="0.85" stroke="black" stroke-opacity="0.55" stroke-width="0.808359"/>
<path fill-rule="evenodd" clip-rule="evenodd" d="M150.863 148.028C151.876 148.939 152.19 151.694 151.565 154.179C150.94 156.665 149.613 157.94 148.601 157.028C147.589 156.116 147.274 153.362 147.899 150.876C148.524 148.39 149.851 147.115 150.863 148.028Z" fill="#FCEF3C" fill-opacity="0.85" stroke="black" stroke-opacity="0.55" stroke-width="0.808359"/>
<path fill-rule="evenodd" clip-rule="evenodd" d="M147.999 144.225C149.188 145.295 149.561 148.514 148.832 151.414C148.102 154.315 146.548 155.797 145.36 154.726C144.171 153.656 143.799 150.436 144.528 147.536C145.257 144.635 146.811 143.153 147.999 144.225Z" fill="#FCEF3C" fill-opacity="0.85" stroke="black" stroke-opacity="0.55" stroke-width="0.808359"/>
<path fill-rule="evenodd" clip-rule="evenodd" d="M145.043 140.991C146.352 142.169 146.765 145.698 145.967 148.873C145.169 152.047 143.462 153.665 142.154 152.485C140.846 151.307 140.432 147.778 141.23 144.604C142.028 141.429 143.736 139.811 145.043 140.991Z" fill="#FCEF3C" fill-opacity="0.85" stroke="black" stroke-opacity="0.55" stroke-width="0.771595"/>
<path fill-rule="evenodd" clip-rule="evenodd" d="M141.563 136.757C143.009 138.058 143.466 141.957 142.584 145.465C141.702 148.972 139.816 150.759 138.371 149.456C136.926 148.155 136.469 144.256 137.35 140.748C138.232 137.241 140.118 135.454 141.563 136.757Z" fill="#FCEF3C" fill-opacity="0.85" stroke="black" stroke-opacity="0.55" stroke-width="0.852474"/>
<path fill-rule="evenodd" clip-rule="evenodd" d="M138.552 133.403C140.06 134.761 140.537 138.828 139.617 142.487C138.697 146.145 136.73 148.01 135.223 146.65C133.715 145.293 133.238 141.225 134.158 137.567C135.078 133.908 137.045 132.044 138.552 133.403Z" fill="#FCEF3C" fill-opacity="0.85" stroke="black" stroke-opacity="0.55" stroke-width="0.889237"/>
<path fill-rule="evenodd" clip-rule="evenodd" d="M135.486 130.268C137.006 131.637 137.487 135.738 136.56 139.427C135.632 143.116 133.648 144.996 132.129 143.625C130.609 142.256 130.128 138.155 131.055 134.466C131.983 130.777 133.967 128.898 135.486 130.268Z" fill="#FCEF3C" fill-opacity="0.85" stroke="black" stroke-opacity="0.55" stroke-width="0.89659"/>
<path fill-rule="evenodd" clip-rule="evenodd" d="M132.324 127.517C133.769 128.818 134.226 132.717 133.344 136.225C132.463 139.732 130.576 141.52 129.131 140.216C127.686 138.915 127.229 135.016 128.111 131.509C128.992 128.001 130.879 126.214 132.324 127.517Z" fill="#FCEF3C" fill-opacity="0.85" stroke="black" stroke-opacity="0.55" stroke-width="0.852474"/>
<path fill-rule="evenodd" clip-rule="evenodd" d="M163.37 158.379C165.629 160.637 165.64 164.289 163.395 166.534C161.149 168.779 157.498 168.768 155.239 166.509C152.981 164.251 152.97 160.599 155.215 158.354C157.46 156.109 161.111 156.12 163.37 158.379Z" fill="#FCEF3C" fill-opacity="0.85" stroke="black" stroke-opacity="0.55" stroke-width="0.655092"/>
<path fill-rule="evenodd" clip-rule="evenodd" d="M161.202 160.547C162.256 161.601 162.261 163.305 161.213 164.353C160.166 165.4 158.462 165.395 157.408 164.341C156.353 163.287 156.348 161.583 157.396 160.535C158.444 159.488 160.148 159.493 161.202 160.547Z" fill="#FCEF3C" fill-opacity="0.85" stroke="black" stroke-opacity="0.55" stroke-width="0.655092"/>
<path fill-rule="evenodd" clip-rule="evenodd" d="M126.885 138.811L131.279 134.418L3.1714 6.31066L6.59342 14.1261L126.885 138.811Z" fill="white" fill-opacity="0.85" stroke="black" stroke-opacity="0.55" stroke-width="0.894324"/>
<path fill-rule="evenodd" clip-rule="evenodd" d="M135.672 130.025L131.279 134.418L3.17139 6.31067L10.9869 9.73269L135.672 130.025Z" fill="white" fill-opacity="0.85" stroke="black" stroke-opacity="0.55" stroke-width="0.894324"/>
<path fill-rule="evenodd" clip-rule="evenodd" d="M112.166 146.219C111.014 147.597 111.1 149.671 112.402 150.973C113.715 152.286 115.8 152.369 117.178 151.187C117.19 151.178 117.211 151.153 117.223 151.143L117.599 150.766L147.627 120.738L147.649 120.716C147.717 120.658 147.784 120.581 147.849 120.517C149.218 119.148 149.211 116.919 147.834 115.541C146.456 114.164 144.227 114.157 142.858 115.527C141.489 116.896 141.496 119.125 142.873 120.502C143.325 120.954 143.878 121.261 144.453 121.417L118.278 147.592C118.121 147.017 117.815 146.465 117.363 146.013C115.985 144.635 113.756 144.629 112.387 145.998C112.312 146.073 112.232 146.139 112.166 146.219Z" fill="#FCEF3C" fill-opacity="0.85" stroke="black" stroke-opacity="0.55" stroke-width="0.904649"/>
<path fill-rule="evenodd" clip-rule="evenodd" d="M100 219.5C100 219.5 199.5 182.06 199.5 86.9094C199.5 -8.24111 199.5 0.725499 199.5 0.725499H0.5V86.9094C0.5 182.06 100 219.5 100 219.5Z" fill="url(#paint0_radial)" fill-opacity="0.55"/>
<path fill-rule="evenodd" clip-rule="evenodd" d="M100 219.5C100 219.5 0.5 182.06 0.5 86.9094C0.5 -8.24112 0.5 0.725499 0.5 0.725499H199.5V86.9094C199.5 182.06 100 219.5 100 219.5Z" stroke="black" stroke-opacity="0.55" stroke-width="3"/>
</g>
<defs>
<radialGradient id="paint0_radial" cx="0" cy="0" r="1" gradientUnits="userSpaceOnUse" gradientTransform="translate(74.0113 73.1858) scale(135.322 134.893)">
<stop stop-color="white" stop-opacity="0.313726"/>
<stop offset="0.19" stop-color="white" stop-opacity="0.25098"/>
<stop offset="0.6" stop-color="#6B6B6B" stop-opacity="0.12549"/>
<stop offset="1" stop-opacity="0.12549"/>
</radialGradient>
<clipPath id="clip0">
<rect width="200" height="220" fill="white"/>
</clipPath>
</defs>
</svg>
