<svg width="100" height="100" viewBox="0 0 100 100" fill="none" xmlns="http://www.w3.org/2000/svg">
<path d="M83.3333 25H60.4166L60.4166 19.7916C60.4166 16.7527 61.6238 13.8382 63.7727 11.6894C65.9215 9.54053 68.836 8.33332 71.875 8.33332C74.9139 8.33332 77.8284 9.54053 79.9772 11.6894C82.1261 13.8382 83.3333 16.7527 83.3333 19.7916V25ZM66.6666 74.5C58.3333 74.5 54.1666 62.5 54.1666 54.1666C54.1666 50 56.25 45.8333 58.3333 39.5833L60.4166 33.3333H83.3333C83.3333 37.5 85.4166 43.75 85.4166 54.1666C85.4166 64.5833 77.0916 74.5 66.6666 74.5ZM16.4416 41.2583L17.3458 36.1291C17.8735 33.1361 19.5685 30.4752 22.0581 28.7319C24.5476 26.9886 27.6277 26.3056 30.6208 26.8333C33.6139 27.361 36.2747 29.056 38.0181 31.5456C39.7614 34.0351 40.4443 37.1152 39.9166 40.1083L39.0083 45.2333L16.4416 41.2583ZM24.2583 92.8958C13.9916 91.0875 7.51663 79.8791 9.32497 69.6208C11.1333 59.3583 14.2708 53.5666 14.9916 49.4625L37.5625 53.4416L38.5291 59.9583C39.4958 66.475 40.8208 70.9416 40.1 75.0416C38.6541 83.25 32.4666 94.3416 24.2583 92.8958V92.8958Z" fill="#801914"/>
</svg>
